<svg width="340" height="101" viewBox="0 0 340 101" fill="none" xmlns="http://www.w3.org/2000/svg">
<path d="M2.83122e-07 92.3V33.9C2.83122e-07 32.3667 0.0333336 31.2333 0.1 30.5C0.233333 29.7667 0.533333 28.9333 1 28C1.93333 26.2 4.16667 25.3 7.7 25.3C11.2333 25.3 13.6 25.7667 14.8 26.7C16.0667 27.5667 16.8 28.8667 17 30.6C19.5333 27.1333 23.5 25.4 28.9 25.4C34.3667 25.4 39.5333 27.9667 44.4 33.1C49.2667 38.2333 51.7 44.2 51.7 51C51.7 57.8 49.2667 63.7667 44.4 68.9C39.6 74.0333 34.4667 76.6 29 76.6C23.5333 76.6 19.5667 75.0667 17.1 72V92.2C17.1 93.7333 17.0333 94.8667 16.9 95.6C16.8333 96.3333 16.5333 97.1667 16 98.1C15.5333 99.1 14.7 99.8 13.5 100.2C12.3 100.6 10.6667 100.8 8.6 100.8C6.53333 100.8 4.86667 100.6 3.6 100.2C2.4 99.8 1.53333 99.1333 1 98.2C0.533333 97.2667 0.233333 96.4333 0.1 95.7C0.0333336 94.9667 2.83122e-07 93.8333 2.83122e-07 92.3ZM19.8 45.2C18.2667 47 17.5 48.9667 17.5 51.1C17.5 53.2333 18.2667 55.2 19.8 57C21.4 58.7333 23.4 59.6 25.8 59.6C28.2667 59.6 30.3333 58.7333 32 57C33.7333 55.2667 34.6 53.3 34.6 51.1C34.6 48.9 33.8 46.9333 32.2 45.2C30.6 43.4 28.5 42.5 25.9 42.5C23.3667 42.5 21.3333 43.4 19.8 45.2ZM109.003 45.4C109.003 49.4667 107.97 52.5 105.903 54.5C103.903 56.4333 101.67 57.4 99.2031 57.4H75.5031C75.5031 59.2667 76.6031 60.8333 78.8031 62.1C81.0031 63.3667 83.2031 64 85.4031 64C89.2698 64 92.3031 63.6 94.5031 62.8L95.6031 62.4C97.2031 61.6667 98.5365 61.3 99.6031 61.3C101.736 61.3 103.57 62.8 105.103 65.8C105.97 67.6 106.403 69.1333 106.403 70.4C106.403 76.3333 99.3031 79.3 85.1031 79.3C80.1698 79.3 75.7698 78.4667 71.9031 76.8C68.1031 75.0667 65.1365 72.8 63.0031 70C58.8031 64.6 56.7031 58.5667 56.7031 51.9C56.7031 43.5 59.4031 36.8 64.8031 31.8C70.2698 26.7333 77.0698 24.2 85.2031 24.2C94.4698 24.2 101.27 27.4667 105.603 34C107.87 37.4667 109.003 41.2667 109.003 45.4ZM87.9031 48.3C90.4365 48.3 91.7031 47.2333 91.7031 45.1C91.7031 43.5667 91.1031 42.3333 89.9031 41.4C88.7698 40.4667 87.1031 40 84.9031 40C82.7698 40 80.6365 40.9 78.5031 42.7C76.3698 44.4333 75.3031 46.3 75.3031 48.3H87.9031ZM114.027 51.7C114.027 43.7 116.827 37.1 122.427 31.9C128.027 26.7 134.427 24.1 141.627 24.1C148.827 24.1 155.194 26.7 160.727 31.9C166.261 37.0333 169.027 43.6 169.027 51.6C169.027 57.1333 167.594 62.0667 164.727 66.4C161.861 70.6667 158.361 73.8333 154.227 75.9C150.161 77.9 145.927 78.9 141.527 78.9C137.127 78.9 132.861 77.8333 128.727 75.7C124.594 73.5 121.094 70.3 118.227 66.1C115.427 61.8333 114.027 57.0333 114.027 51.7ZM134.927 58.9C137.061 60.5 139.227 61.3 141.427 61.3C143.627 61.3 145.827 60.4667 148.027 58.8C150.227 57.1333 151.327 54.6667 151.327 51.4C151.327 48.1333 150.294 45.7 148.227 44.1C146.161 42.5 143.927 41.7 141.527 41.7C139.127 41.7 136.894 42.5333 134.827 44.2C132.761 45.8667 131.727 48.3333 131.727 51.6C131.727 54.8 132.794 57.2333 134.927 58.9ZM175.488 92.3V33.9C175.488 32.3667 175.522 31.2333 175.588 30.5C175.722 29.7667 176.022 28.9333 176.488 28C177.422 26.2 179.655 25.3 183.188 25.3C186.722 25.3 189.088 25.7667 190.288 26.7C191.555 27.5667 192.288 28.8667 192.488 30.6C195.022 27.1333 198.988 25.4 204.388 25.4C209.855 25.4 215.022 27.9667 219.888 33.1C224.755 38.2333 227.188 44.2 227.188 51C227.188 57.8 224.755 63.7667 219.888 68.9C215.088 74.0333 209.955 76.6 204.488 76.6C199.022 76.6 195.055 75.0667 192.588 72V92.2C192.588 93.7333 192.522 94.8667 192.388 95.6C192.322 96.3333 192.022 97.1667 191.488 98.1C191.022 99.1 190.188 99.8 188.988 100.2C187.788 100.6 186.155 100.8 184.088 100.8C182.022 100.8 180.355 100.6 179.088 100.2C177.888 99.8 177.022 99.1333 176.488 98.2C176.022 97.2667 175.722 96.4333 175.588 95.7C175.522 94.9667 175.488 93.8333 175.488 92.3ZM195.288 45.2C193.755 47 192.988 48.9667 192.988 51.1C192.988 53.2333 193.755 55.2 195.288 57C196.888 58.7333 198.888 59.6 201.288 59.6C203.755 59.6 205.822 58.7333 207.488 57C209.222 55.2667 210.088 53.3 210.088 51.1C210.088 48.9 209.288 46.9333 207.688 45.2C206.088 43.4 203.988 42.5 201.388 42.5C198.855 42.5 196.822 43.4 195.288 45.2ZM233.691 9.3C233.691 7.76666 233.725 6.63333 233.791 5.9C233.925 5.1 234.225 4.2 234.691 3.2C235.625 1.4 238.225 0.499996 242.491 0.499996C246.558 0.499996 249.091 1.4 250.091 3.2C250.625 4.2 250.925 5.1 250.991 5.9C251.125 6.7 251.191 7.86666 251.191 9.4V55.7C251.191 58.1 251.391 59.6333 251.791 60.3C252.191 60.9 253.058 61.2 254.391 61.2C255.791 61.2 256.725 61.2667 257.191 61.4C257.658 61.4667 258.225 61.7333 258.891 62.2C260.225 63.0667 260.891 65.4333 260.891 69.3C260.891 73.5 260.225 76.0667 258.891 77C257.158 78.2 253.025 78.4 246.491 77.6C241.358 76.9333 238.025 75.2333 236.491 72.5C234.625 69.2333 233.691 64.0333 233.691 56.9V9.3ZM316.23 45.4C316.23 49.4667 315.196 52.5 313.13 54.5C311.13 56.4333 308.896 57.4 306.43 57.4H282.73C282.73 59.2667 283.83 60.8333 286.03 62.1C288.23 63.3667 290.43 64 292.63 64C296.496 64 299.53 63.6 301.73 62.8L302.83 62.4C304.43 61.6667 305.763 61.3 306.83 61.3C308.963 61.3 310.796 62.8 312.33 65.8C313.196 67.6 313.63 69.1333 313.63 70.4C313.63 76.3333 306.53 79.3 292.33 79.3C287.396 79.3 282.996 78.4667 279.13 76.8C275.33 75.0667 272.363 72.8 270.23 70C266.03 64.6 263.93 58.5667 263.93 51.9C263.93 43.5 266.63 36.8 272.03 31.8C277.496 26.7333 284.296 24.2 292.43 24.2C301.696 24.2 308.496 27.4667 312.83 34C315.096 37.4667 316.23 41.2667 316.23 45.4ZM295.13 48.3C297.663 48.3 298.93 47.2333 298.93 45.1C298.93 43.5667 298.33 42.3333 297.13 41.4C295.996 40.4667 294.33 40 292.13 40C289.996 40 287.863 40.9 285.73 42.7C283.596 44.4333 282.53 46.3 282.53 48.3H295.13Z" fill="white"/>
<path d="M338.254 61.5C339.387 62.6333 339.954 64.9667 339.954 68.5V68.9C339.954 70.5 339.887 71.7 339.754 72.5C339.687 73.2333 339.354 74.1333 338.754 75.2C337.754 77.1333 335.221 78.1 331.154 78.1C327.154 78.1 324.487 77.4667 323.154 76.2C321.887 74.9333 321.254 72.5333 321.254 69V68.6C321.254 67.0667 321.287 65.9 321.354 65.1C321.487 64.3 321.821 63.4 322.354 62.4C323.354 60.4 325.854 59.4 329.854 59.4C333.921 59.4 336.721 60.1 338.254 61.5Z" fill="#5468FF"/>
</svg>
